<svg width="1236" height="1060" viewBox="0 0 1236 1060" fill="none" xmlns="http://www.w3.org/2000/svg">
<path d="M613 237V238L612 239V241L610 243V244L609 245V247L607 249V250L606 251V252L605 253V254L604 255V256L603 257V258L602 259V260L601 261V262L600 263V264L599 265V266L598 267V268L596 270V271L595 272V273L594 274V275L593 276V277L592 278V279L591 280V281L590 282V283L589 284V285L588 286V287L586 289V290L585 291V292L584 293V294L583 295V296L582 297V298L581 299V300L580 301V302L579 303V304L578 305V306L577 307V308L575 310V311L574 312V314L573 315V316L571 318V320L570 321V322L569 323V324L568 325V326L567 327V328L566 329V330L565 331V332L564 333V334L563 335V337L562 338V339L561 340V341L560 342V343L559 344V346L557 348V350L556 351V353L555 354V355L554 356V357L553 358V361L552 362V363L551 364V366L550 367V369L549 370V372L548 373V375L547 376V379L546 380V383L545 384V388L544 389V396L543 397V402L542 403V409L541 410H540L539 409H538L536 407H534L532 405H531L530 404H529L528 403H527L526 402H524L523 401H522L521 400H520L519 399H518L517 398H515L514 397H513L512 396H511L510 395H508L507 394H505L503 392H500L499 391H497L495 389H493L492 388H489L488 387H487L486 386H484L483 385H481L480 384H477L476 383H471L470 382H468L467 381H463L462 380H457L456 381V388L455 389V397L454 398V412L455 413V418L456 419V424L457 425V429L458 430V431L459 432V434L460 435V438L461 439V440L462 441V443L463 444V445L464 446V448L465 449V450L466 451V452L467 453V454L468 455V456L469 457V458L470 459V460L471 461V462L474 465V467L476 469V470L477 471V472L479 474V475L481 477V478L482 479V480L485 483V484L491 490V491L492 492V493L491 494H488L487 493H483L482 492H466L465 493H461L460 494H454L453 495H449L448 496H447L446 497H443L442 498H440L439 499H437L436 500H435L434 501H432L431 502H430L429 503H427L426 504H425L424 505H423L422 506H421L419 508H418L417 509H416L415 510H414L413 511H412L411 512H410L408 514H407L405 516H404L402 518H401L399 520H398L395 523H394L391 526H390L386 530H385L369 546V547L368 548V551L372 555V556L374 558V559L378 563V564L391 577H392L395 580H396L398 582H399L401 584H402L404 586H405L406 587H407L408 588H409L410 589H411L412 590H414L415 591H416L417 592H419L420 593H423L424 594H426L427 595H429L430 596H435L436 597H439L440 598H447L448 599H463L464 598H477L478 597H481L482 596H487L488 595H490L491 594H493L494 593H497L498 592H501L502 591H503L504 590H506L507 589H509L510 590L508 592V593L505 596V597L504 598V599L503 600V601L501 603V604L500 605V607L499 608V609L498 610V611L497 612V614L496 615V617L495 618V620L494 621V623L493 624V627L492 628V631L491 632V634L490 635V637L489 638V642L488 643V645L487 646V648L486 649V653H510L511 652H516L517 651H522L523 650H525L526 649H528L529 648H530L531 647H532L533 646H535L536 645H537L539 643H540L541 642H542L544 640H545L546 639H547L549 637H550L552 635H553L556 632H557L561 628H562L572 618H573L584 607H585L589 603H588L586 605H585L584 606H583L581 608H580L579 609H578L576 611H575L573 613H572L570 615H569L567 617H566L564 619H563L561 621H560L558 623H556L553 626H551L550 627H549L548 628H547L546 629H545L544 630H542L541 631H540L539 632H537L536 633H534L533 634H530L529 635H526L525 636L524 635L523 636H516L514 634V632L517 629V627L518 626V625L521 622V620L523 618V617L525 615H526V614L528 612V611L529 610V609L531 607H532V606L533 605L532 604V602L536 598H537L538 597H539H535L534 596V594H531L528 597H527L520 604V605L516 609H515L514 608L516 606V604L517 603V602L520 599V598L524 594L523 593L524 592V591H522L521 590L526 585H527L530 582H531L532 581H534L535 580H536L537 579H539L540 578H542L544 576H545L546 575H547L548 574V573H539L538 572L539 571H542L543 570H544L545 569L544 568H539L537 566L538 565H540L541 564H545L546 563H549L551 561H557L558 560H559L560 559H562L563 558H564V556H562L561 555H560L559 556L558 555H556L555 556H545L544 557H543L542 558H526L525 559H518L517 560H516L515 561H513L512 562H510L509 563H508L507 564L506 563L503 566H500L499 567H498L497 568H496L495 567L494 568H493L492 569H491L490 570H488L487 571H482L481 572H480L479 573H476L475 574H469L468 575L467 574L466 575H465L464 576H453L452 577H451L450 576H438L437 575H435L434 574H430L429 573H425L423 571H421L420 570H419L418 569H416L415 568H414L412 566H410L408 564H407L405 562H404L401 559H400L392 551V550L391 549V548L392 547H393L401 539H402L405 536H406L411 531H412L416 527H417L422 522H423L425 520H426L427 519H428L430 517H431L433 515H434L435 514H436L437 513H438L439 512H440L441 511H443L444 510H445L446 509H447L448 508H450L451 507H452L453 506H455L456 505H458L459 504H461L462 503H467L468 502H471L472 501H481L482 500L483 501H493L494 502H501L502 503H503L504 504H505L507 506H508L510 508H511L512 509V510L514 512H516L517 513V514L519 516H521L522 517H523L527 521H528L529 522H530L531 523H532L534 525H538V524L537 523V522L538 521H539L540 522H541L542 523V522L541 521V519L540 518V516L539 515L540 514H541L545 518H546L547 519H548L551 522H552L553 523H554L555 524H557L558 523V522L557 521V520L553 516V515L551 513H550L549 512H548L547 511V510L546 509V508L545 507V505L542 502H541L540 501V499L539 498H538L537 497H536L532 493V494L531 495L530 494V493L528 491H527L523 487H522L521 486H520L518 484V483L516 481H515L514 480H513L512 479V478L500 466V465L499 464V463L496 460V459H495L494 458V457L492 455V454L489 451V450L488 449V448L487 447V446L486 445V444L484 442V441L483 440V439L482 438V437L480 435V433L478 431V430L477 429V426L476 425V423L475 422V421L474 420V418L473 417V412L472 411V408L471 407V398L472 397H477L478 398H481L482 399H485L486 400H489L490 401H495L496 402H498L499 403H502L503 404H507L508 405H512L513 406H515L516 407H518L519 408H522L523 409H526L527 410H529L530 411H532L533 412H535L536 413H537L538 414H539L540 415H541L542 416V427L543 428V432L544 433V437L545 438V443L546 444V447L547 448V451L548 452V454L549 455V457L550 458V461L551 462V464L552 465V467L553 468V470L554 471V474L555 475V476L556 477V478L557 479V480L559 482V484L560 485V486L561 487V488L562 489V491L563 492V494L564 495V498L566 500V501L567 502V503L569 505V506L570 507V508L571 509V511L572 512V513L573 514V515L574 516V517L575 518V519L578 522V523L580 525V526L582 528V530L584 532V533L585 534V535L586 536V537L588 539V540L590 542V543L592 545V546L594 548V549L596 551V552L599 555V556L603 560V561L607 565H608V564L606 562V561L605 560V557L604 556V555L602 553V552L603 551L606 554V555L607 556V557H608L609 558V559L610 560V561H611L610 560V559L609 558V556L608 555V553L607 552V551L606 550V548L605 547V545L606 544L607 545V546L609 548V549L610 550V551L612 553V554L614 556V557L615 558V559L618 562V563L622 567V568L624 570V571L626 573V574L628 576V577L629 578H630L632 580V581L633 582V583L636 586H637V583L636 582V581L635 580V579L634 578V577L633 576V575L632 574V573L630 571V570L627 567V566L626 565V563L624 561V560L622 558V556L619 553V552L617 550V549L615 547V546L613 544V541L612 540V539L611 538V537L610 536V534L609 533V531L608 530V529L607 528V527L606 526V525L605 524V523L603 521V520L602 519V518L600 516V515L599 514V510L598 509V508L596 506V505L595 504V503L592 500V498L591 497V496L589 494V491H588L586 489V488L587 487H588L587 486H586L585 485H584L583 484V482L582 481V477L579 474V473L578 472V471L577 470V469L576 468V462L574 460V459L573 458V456L572 455V453L571 452V451L570 450V448L569 447V439L568 438V437L567 436V433L566 432V428L565 427V419L564 418V400L565 399V395L566 394V389L567 388V383L568 382V381L569 380V377L570 376V373L571 372V371L572 370V369L573 368V366L574 365V363L575 362V361L576 360V357L577 356V355L578 354V352L579 351V349L580 348V347L581 346V345L582 344V342L583 341V340L584 339V338L585 337V335L587 333V331L588 330V328L590 326V325L591 324V322L592 321V320L594 318V316L595 315V314L597 312V311L598 310V309L600 307V305L601 304V302L602 301V300L604 298V297L605 296V295L606 294V293L608 291V289L609 288V286L611 284V283L612 282V281L613 280V278L614 277V276L615 275V274L617 272V270L618 269H619L621 271V272L637 288V289L644 296V297L649 302V303L653 307V308L658 313V314L663 319V320L666 323V324L667 325V326L670 329V330L671 331V332L673 334V335L674 336V337L676 339V340L678 342V343L680 345V346L681 347V348L682 349V350L683 351V352L686 355V356L687 357V359L688 360V361L689 362V363L690 364V366L692 368V371L693 372V373L694 374V375L695 376V378L696 379V383L697 384V388L698 389V393L699 394V411L698 412V418L697 419V423L696 424V429L695 430V433L694 434V439L693 440V442L692 443V446L691 447V452L690 453V455L689 456V459L688 460V464L687 465V467L686 468V470L685 471V473L684 474V476L683 477V480L682 481V484L681 485V487L680 488V491L679 492V493L678 494V497L677 498V501L676 502V504L675 505V506L674 507V509L673 510V512L672 513V515L671 516V518L670 519V521L669 522V523L668 524V526L667 527V529L666 530V532L665 533V535L664 536V538L663 539V541L662 542V544L661 545V546L660 547V549L659 550V553L658 554V555L657 556V558L656 559V560L655 561V563L654 564V565L653 566V568L652 569V571L651 572V573L650 574V576L649 577V578L648 579V580L647 581V583L646 584V586L645 587V591L646 592H647V591L648 590V588L649 587V586L650 585V584L652 582V580L653 579V578L654 577V576L655 575V573L656 572V571L657 570V569L658 568V566L659 565V564L660 563V562L661 561V559L662 558V557L663 556V555L664 554V553L665 552V550L666 549V548L667 547V545L668 544V543L669 542V541L670 540V538L671 537V536L672 535V534L673 533V530L674 529V528L675 527V526L676 525V523L677 522V521L678 520V519L679 518V516L680 515V513L681 512V510L682 509V508L683 507V505L684 504V502L685 501V499L686 498V497L687 496V494L688 493V491L689 490V489L690 488V486L691 485V482L692 481V480L693 479V477L694 476V473L695 472V471L696 470V468L697 467V464L698 463V461L699 460V458L700 457V455L701 454V452L702 451V447L703 446V444L704 443V441L705 440V436L706 435V432L707 431V429L708 428V423L709 422V417L710 416V413L711 412V406L713 404H714L715 403H717L718 402H719L720 401H722L723 400H725L726 399H728L729 398H731L732 397H736L737 396H740L741 395H743L744 394H749L750 393H754L755 392H757L758 391H764L765 390H770L771 389H774L775 388H781L782 387H783L784 388V394L783 395V399L782 400V403L781 404V406L780 407V410L779 411V413L778 414V416L777 417V419L776 420V422L774 424V426L773 427V428L772 429V430L771 431V432L770 433V434L769 435V436L768 437V438L767 439V440L766 441V442L764 444V445L762 447V448L760 450V451L756 455V456L755 457V458L753 460V461L751 463V464L748 467V468L746 470V471L744 473V474L743 475V476L742 477V478L741 479V480L738 483V485L737 486V487L733 491V492L730 495V497L729 498V499L726 502V503L724 505V506L723 507V508L722 509V510L721 511V515L722 514H724L725 515V516L723 518V519H724L725 518H726L727 517H729L730 516H731L732 517L731 518V519L727 523V525L723 529V530L722 531V532L721 533V534L722 535H724L726 533H727V532L728 531H729L733 527V526L736 523H738L739 522H740L741 521H742L744 519V518L746 516H748V515L749 514V512L753 508V505L755 503V501L757 499H758L760 497H763L764 496H768L769 495H775L776 494H786L787 495H791L792 496H798L799 497H803L804 498H806L807 499H808L809 500H811L812 501H814L815 502H816L817 503H819L820 504H821L822 505H823L825 507H826L827 508H828L829 509H830L832 511H833L834 512H835L838 515H839L841 517H842L844 519H845L849 523H850L855 528H856L865 537H866L867 538V539L868 540H869L870 541V542L871 543L864 550H863L860 553H859L857 555H856L855 556H854L852 558H851L850 559H849L848 560H847L846 561H845L844 562H841L840 563H839L838 564H836L835 565H830L829 566H818L817 567H798L797 566H776L775 565H767L766 566H765L764 565H759L758 564H754L753 565H751L750 564H744L743 565H740L739 564H729L728 565H723L722 566H719V567L720 568H721L722 569H726L727 570L726 571H725L724 572H718H720L722 574H723L724 575H726L727 576L726 577H718L717 578H714L713 579H707L706 580H703L702 581V582L703 583H706L707 584H716L717 585L718 584H723L724 585H725L726 586H728L729 587H731L732 588H733L734 589V591L735 592V593L737 595V598L738 599V601L739 602V603L740 604V605L741 606V607L740 608L736 604V603L734 601V603L735 604V605L737 607V608L738 609V610L739 611V612L740 613V614L741 615V616L742 617V618L743 619V620L744 621V622L745 623V624L746 625V626L747 627V628L748 629V630L749 631V632L750 633V636L749 637H743L742 636H738L737 635H734L733 634H730L729 633H727L726 632H724L723 631H722L721 630H720L719 629H717L715 627H714L713 626H711L710 625H709L707 623H705L704 622H703L701 620H700L699 619H698L697 618H696L695 617H694L692 615H691L689 613H688L687 612H686L683 609H682L681 608H680L679 607L690 618H691L695 622H696L700 626H701L703 628H704L707 631H708L710 633H711L714 636H715L717 638H718L720 640H721L722 641H723L725 643H726L727 644H728L730 646H733L734 647H735L736 648H737L738 649H740L741 650H743L744 651H747L748 652H752L753 653H764L765 654H778L779 653V651L778 650V648L776 646V641L775 640V637L774 636V633L773 632V628L772 627V624L771 623V622L770 621V617L769 616V615L768 614V612L767 611V607L766 606V604L765 603V602L764 601V600L762 598V596V600L763 601V604L762 605L761 604V602L759 600V597L758 596V592L759 591L760 592V594H761V592L760 591V590L761 589H766L767 590H768L769 589L770 590L771 589H778L779 590H809L810 589H825L826 588H828L829 587H833L834 586H838L839 585H841L842 584H844L845 583H846L847 582H849L850 581H852L853 580H855L858 577H860L861 576H862L865 573H866L867 572H868L872 568H873L887 554V553L890 550V549L893 546V545L894 544V541L883 530V529H882L878 525H877L869 517H868L866 515H865L862 512H860L857 509H856L854 507H853L852 506H851L850 505H848L847 504V503H846L845 502H844L843 501H842L841 500H840L839 499H838L837 498H836L835 497H834L833 496H832L831 495H830L829 494H827L826 493H825L824 492H822L821 491H818L817 490H815L814 489H811L810 488H804L803 487H793L792 486H788L787 487H775L774 488H770L769 489H766L765 490L764 489V487L765 486V485L767 483V482L768 481V480L770 478V477L771 476V475L773 473V471L775 469V468L778 465V464L779 463V462L780 461V460L781 459V458L782 457V456L783 455V454L784 453V452L785 451V450L786 449V448L787 447V446L788 445V444L789 443V441L790 440V439L791 438V436L792 435V434L793 433V430L794 429V426L795 425V424L796 423V421L797 420V416L798 415V410L799 409V405L800 404V393L801 392V385L800 384V376L799 375V370H798L797 371H793L792 372H790L789 373H784L783 374H779L778 375H776L775 376H772L771 377H768L767 378H765L764 379H763L762 380H760L759 381H756L755 382H754L753 383H750L749 384H748L747 385H745L744 386H743L742 387H740L739 388H737L736 389H734L733 390H732L731 391H730L729 392H728L727 393H726L725 394H724L723 395H722L721 396H720L719 397H718L717 398H716L714 400H713L711 398V386L710 385V382L709 381V377L708 376V372L707 371V369L706 368V367L705 366V363L704 362V360L703 359V358L702 357V355L701 354V353L700 352V351L699 350V349L698 348V346L697 345V344L696 343V342L694 340V338L692 336V335L691 334V333L690 332V331L688 329V328L687 327V326L685 324V323L683 321V320L681 318V317L679 315V314L676 311V310L674 308V307L672 305V304L669 301V300L666 297V296L662 292V291L658 287V286L653 281V280L647 274V273L640 266V265L630 255V254L620 244V243L614 237H613Z" fill="black"/>
</svg>
